<svg xmlns="http://www.w3.org/2000/svg" xmlns:xlink="http://www.w3.org/1999/xlink" width="190" zoomAndPan="magnify" viewBox="0 0 3900 697.499984" height="34" preserveAspectRatio="xMidYMid meet" version="1.0"><defs><g/><clipPath id="4e7be30c5b"><path d="M 1.398438 0 L 3898.601562 0 L 3898.601562 697 L 1.398438 697 Z M 1.398438 0 " clip-rule="nonzero"/></clipPath><clipPath id="0cc7946e79"><path d="M 265.113281 135.898438 L 456 135.898438 L 456 552.597656 L 265.113281 552.597656 Z M 265.113281 135.898438 " clip-rule="nonzero"/></clipPath><clipPath id="d02d57827e"><path d="M 293 142 L 480.957031 142 L 480.957031 548 L 293 548 Z M 293 142 " clip-rule="nonzero"/></clipPath></defs><g clip-path="url(#4e7be30c5b)"><path fill="#ffffff" d="M 1.398438 0 L 3898.601562 0 L 3898.601562 697 L 1.398438 697 Z M 1.398438 0 " fill-opacity="1" fill-rule="nonzero"/><path fill="#ffffff" d="M 1.398438 0 L 3898.601562 0 L 3898.601562 697 L 1.398438 697 Z M 1.398438 0 " fill-opacity="1" fill-rule="nonzero"/></g><g fill="#000000" fill-opacity="1"><g transform="translate(-46.677772, 670.364992)"><g><path d="M 419.859375 15.203125 C 195.671875 15.203125 52.25 -81.6875 52.25 -329.609375 C 52.25 -562.328125 195.671875 -668.71875 419.859375 -668.71875 C 644.03125 -668.71875 787.453125 -562.328125 787.453125 -329.609375 C 787.453125 -81.6875 644.03125 15.203125 419.859375 15.203125 Z M 419.859375 -660.171875 C 292.5625 -660.171875 268.8125 -558.53125 268.8125 -326.765625 C 268.8125 -79.796875 292.5625 6.65625 419.859375 6.65625 C 547.140625 6.65625 570.890625 -79.796875 570.890625 -326.765625 C 570.890625 -558.53125 547.140625 -660.171875 419.859375 -660.171875 Z M 419.859375 -660.171875 "/></g></g></g><g clip-path="url(#0cc7946e79)"><path fill="#000000" d="M 279.867188 353.117188 C 280.070312 353.199219 280.273438 353.324219 280.472656 353.492188 C 280.285156 353.335938 280.078125 353.210938 279.859375 353.117188 Z M 430.828125 140.246094 C 442.933594 140.246094 449.265625 141.808594 449.820312 144.929688 C 449.890625 145.324219 450.058594 145.699219 450.304688 146.015625 L 450.292969 146.015625 C 450.433594 146.859375 449.847656 148.679688 448.53125 151.476562 C 427.820312 195.464844 411.070312 233.304688 398.28125 265 L 398.269531 265 C 397.296875 267.070312 392.386719 280.191406 383.550781 304.363281 C 382.363281 307.382812 381.777344 310.210938 381.789062 312.847656 C 381.785156 313.289062 381.804688 313.707031 381.851562 314.105469 C 382.261719 317.570312 384.148438 319.304688 387.503906 319.304688 C 387.933594 319.304688 388.390625 319.277344 388.867188 319.21875 L 388.992188 319.203125 C 411.410156 315.363281 426.800781 313.445312 435.160156 313.445312 C 436.976562 313.445312 438.457031 313.535156 439.609375 313.71875 C 439.695312 313.730469 439.785156 313.738281 439.871094 313.742188 C 446.660156 314.074219 450.269531 315.527344 450.707031 318.105469 L 450.695312 318.105469 C 370.511719 435.679688 319.058594 509.679688 296.339844 540.105469 C 310.308594 505.144531 326.910156 456.304688 346.144531 393.585938 C 351.027344 377.609375 353.644531 366.226562 353.992188 359.425781 C 354 359.265625 353.992188 359.105469 353.96875 358.945312 C 353.285156 354.222656 350.910156 351.515625 346.847656 350.820312 C 346.710938 350.796875 346.570312 350.785156 346.433594 350.785156 C 346.398438 350.785156 346.359375 350.789062 346.324219 350.789062 C 311.289062 352.339844 289.988281 353.113281 282.417969 353.113281 C 281.039062 353.113281 280.117188 353.089844 279.648438 353.035156 L 279.640625 353.035156 C 279.402344 352.960938 279.152344 352.921875 278.898438 352.921875 C 278.890625 352.921875 278.882812 352.921875 278.878906 352.921875 C 278.765625 352.921875 278.652344 352.921875 278.539062 352.921875 C 273.375 352.921875 270.566406 351.957031 270.121094 350.023438 L 270.113281 350.023438 C 320.292969 258.082031 355.5 189.210938 375.738281 143.410156 C 375.773438 143.335938 375.800781 143.257812 375.824219 143.183594 L 375.835938 143.183594 C 376.191406 144.136719 377.105469 144.78125 378.136719 144.78125 C 378.242188 144.78125 378.347656 144.777344 378.457031 144.761719 C 401.480469 141.753906 418.9375 140.246094 430.828125 140.246094 Z M 426.835938 135.875 C 414.550781 135.875 398.214844 137.207031 377.820312 139.875 C 376.847656 140 376.082031 140.679688 375.796875 141.558594 C 375.574219 140.953125 375.117188 140.4375 374.484375 140.15625 C 374.160156 140.015625 373.824219 139.945312 373.492188 139.945312 C 372.546875 139.945312 371.644531 140.492188 371.238281 141.414062 C 351.007812 187.199219 315.742188 256.167969 265.441406 348.316406 C 265.238281 348.683594 265.132812 349.097656 265.136719 349.515625 C 265.183594 355.070312 269.65625 357.847656 278.558594 357.851562 L 278.550781 357.851562 C 278.617188 357.867188 278.6875 357.878906 278.757812 357.890625 C 279.265625 357.96875 280.457031 358.007812 282.324219 358.007812 C 290.53125 358.007812 311.835938 357.246094 346.242188 355.726562 L 346.25 355.726562 C 347.777344 356.082031 348.71875 357.328125 349.070312 359.457031 L 349.0625 359.457031 C 348.671875 365.890625 346.132812 376.785156 341.4375 392.140625 C 320.898438 459.128906 303.378906 510.214844 288.878906 545.402344 L 288.835938 545.511719 C 288.371094 546.808594 288.199219 547.949219 288.3125 548.933594 C 288.515625 550.632812 289.40625 551.777344 290.988281 552.367188 C 291.269531 552.46875 291.558594 552.519531 291.84375 552.519531 C 292.582031 552.519531 293.300781 552.1875 293.777344 551.582031 C 312.105469 528.28125 365.925781 451.148438 455.242188 320.183594 C 455.511719 319.789062 455.660156 319.324219 455.667969 318.847656 C 455.8125 312.703125 450.671875 309.363281 440.25 308.828125 L 440.242188 308.828125 C 438.953125 308.636719 437.320312 308.539062 435.347656 308.539062 C 426.503906 308.539062 410.796875 310.472656 388.21875 314.335938 L 388.210938 314.335938 C 388.097656 314.347656 387.992188 314.351562 387.890625 314.351562 C 387.1875 314.351562 386.804688 314.074219 386.738281 313.523438 C 386.714844 313.328125 386.707031 313.109375 386.710938 312.871094 L 386.710938 312.824219 C 386.699219 310.808594 387.179688 308.578125 388.144531 306.136719 L 388.164062 306.082031 L 388.171875 306.0625 L 388.171875 306.058594 C 397.109375 281.617188 401.949219 268.648438 402.699219 267.144531 C 402.75 267.050781 402.796875 266.957031 402.839844 266.855469 C 415.59375 235.246094 432.308594 197.484375 452.980469 153.578125 C 454.863281 149.578125 455.546875 146.601562 455.03125 144.648438 C 454.914062 144.214844 454.75 143.816406 454.53125 143.460938 L 454.519531 143.460938 C 452.984375 138.40625 443.757812 135.875 426.835938 135.875 Z M 426.835938 135.875 " fill-opacity="1" fill-rule="nonzero"/></g><g clip-path="url(#d02d57827e)"><path fill="#000000" d="M 454.230469 142.585938 C 453.472656 142.585938 452.722656 142.9375 452.242188 143.59375 C 451.441406 144.695312 451.679688 146.234375 452.773438 147.039062 C 456.550781 149.808594 457.503906 152.859375 455.640625 156.195312 C 455.585938 156.296875 455.539062 156.398438 455.496094 156.503906 C 420.601562 246.253906 401.429688 294.1875 397.976562 300.308594 L 397.96875 300.308594 C 397.8125 300.417969 397.667969 300.546875 397.539062 300.691406 C 397.082031 301.210938 396.859375 301.902344 396.9375 302.59375 C 397.050781 303.648438 397.585938 304.359375 398.539062 304.730469 C 398.894531 304.871094 399.230469 304.9375 399.554688 304.9375 C 399.835938 304.9375 400.109375 304.886719 400.367188 304.777344 L 400.359375 304.777344 L 472.410156 303.929688 L 472.417969 303.929688 C 474.394531 304.226562 475.339844 304.671875 475.253906 305.265625 C 475.230469 305.425781 475.183594 305.609375 475.105469 305.816406 L 475.097656 305.816406 C 390.8125 444.4375 330.640625 523.511719 294.585938 543.035156 C 293.386719 543.683594 292.945312 545.175781 293.589844 546.375 C 294.035156 547.199219 294.882812 547.667969 295.757812 547.667969 C 296.152344 547.667969 296.554688 547.570312 296.925781 547.371094 C 333.78125 527.414062 394.617188 447.671875 479.4375 308.152344 C 479.507812 308.039062 479.566406 307.917969 479.617188 307.796875 C 479.875 307.160156 480.042969 306.546875 480.128906 305.953125 C 480.671875 302.089844 478.273438 299.78125 472.925781 299.023438 C 472.8125 299.007812 472.699219 299 472.582031 299 C 472.574219 299 472.5625 299 472.554688 299 L 403.640625 299.8125 C 409.84375 286.289062 428.628906 239.1875 460 158.503906 L 459.992188 158.503906 C 463.203125 152.671875 461.765625 147.523438 455.679688 143.0625 C 455.242188 142.742188 454.734375 142.585938 454.230469 142.585938 Z M 454.230469 142.585938 " fill-opacity="1" fill-rule="nonzero"/></g><path fill="#000000" d="M 305.703125 535.863281 L 305.703125 535.867188 L 305.699219 535.863281 Z M 454.785156 148.683594 C 454.714844 148.683594 454.65625 148.730469 454.636719 148.796875 C 454.277344 150.167969 453.679688 151.738281 452.84375 153.515625 C 432.171875 197.421875 415.457031 235.183594 402.699219 266.796875 C 402.660156 266.890625 402.617188 266.984375 402.566406 267.074219 C 402.558594 267.089844 402.550781 267.109375 402.546875 267.128906 L 402.539062 267.128906 C 401.714844 268.851562 396.875 281.808594 388.03125 306.007812 L 388.027344 306.007812 L 388.027344 306.011719 L 388.023438 306.027344 L 388 306.082031 C 387.03125 308.542969 386.550781 310.789062 386.558594 312.824219 L 386.558594 312.871094 C 386.554688 313.117188 386.566406 313.339844 386.589844 313.542969 C 386.664062 314.183594 387.097656 314.503906 387.890625 314.503906 C 387.996094 314.503906 388.105469 314.496094 388.226562 314.488281 L 388.234375 314.484375 L 388.246094 314.484375 C 410.8125 310.621094 426.511719 308.691406 435.347656 308.691406 C 437.3125 308.691406 438.9375 308.785156 440.21875 308.980469 L 440.246094 308.980469 L 440.242188 308.980469 C 450.566406 309.507812 455.65625 312.796875 455.519531 318.847656 C 455.507812 319.292969 455.367188 319.726562 455.117188 320.097656 C 380.492188 429.515625 330.648438 501.359375 305.582031 535.625 C 305.546875 535.667969 305.542969 535.730469 305.566406 535.78125 C 305.582031 535.8125 305.609375 535.835938 305.636719 535.851562 L 305.628906 535.851562 C 305.636719 535.855469 305.644531 535.855469 305.652344 535.859375 C 305.667969 535.863281 305.683594 535.867188 305.699219 535.867188 C 305.734375 535.867188 305.769531 535.855469 305.796875 535.832031 L 305.792969 535.832031 C 342.589844 507.792969 399.066406 431.152344 475.21875 305.90625 L 475.210938 305.90625 L 475.160156 305.941406 L 475.25 305.867188 C 475.328125 305.652344 475.378906 305.457031 475.40625 305.285156 L 475.40625 305.265625 C 475.480469 304.582031 474.492188 304.089844 472.441406 303.78125 L 472.410156 303.78125 L 400.355469 304.628906 C 400.324219 304.628906 400.292969 304.640625 400.269531 304.65625 L 400.261719 304.65625 C 400.035156 304.742188 399.796875 304.785156 399.554688 304.785156 C 399.25 304.785156 398.929688 304.722656 398.59375 304.589844 C 397.695312 304.242188 397.195312 303.570312 397.085938 302.578125 C 397.015625 301.929688 397.222656 301.28125 397.652344 300.792969 C 397.773438 300.660156 397.902344 300.542969 398.042969 300.445312 L 398.035156 300.445312 L 398.003906 300.453125 L 398.105469 300.382812 C 401.5625 294.257812 420.742188 246.316406 455.636719 156.558594 C 455.675781 156.460938 455.722656 156.363281 455.773438 156.269531 C 457.277344 153.578125 456.988281 151.066406 454.90625 148.734375 L 454.792969 148.683594 Z M 454.785156 148.683594 " fill-opacity="1" fill-rule="nonzero"/><g fill="#000000" fill-opacity="1"><g transform="translate(946.581072, 346.362178)"><g><path d="M 164.6875 3.6875 C 134.238281 3.6875 107.25 -1.460938 83.71875 -11.765625 C 60.195312 -22.066406 41.820312 -38.441406 28.59375 -60.890625 C 15.375 -83.335938 8.765625 -112.707031 8.765625 -149 C 8.765625 -185.289062 15.296875 -216.660156 28.359375 -243.109375 C 41.429688 -269.554688 59.734375 -290.082031 83.265625 -304.6875 C 106.796875 -319.300781 133.9375 -326.609375 164.6875 -326.609375 C 195.75 -326.609375 223.039062 -319.300781 246.5625 -304.6875 C 270.09375 -290.082031 288.394531 -269.554688 301.46875 -243.109375 C 314.539062 -216.660156 321.078125 -185.289062 321.078125 -149 C 321.078125 -112.707031 314.460938 -83.335938 301.234375 -60.890625 C 288.015625 -38.441406 269.640625 -22.066406 246.109375 -11.765625 C 222.578125 -1.460938 195.4375 3.6875 164.6875 3.6875 Z M 165.15625 -57.203125 C 180.832031 -57.203125 194.972656 -60.273438 207.578125 -66.421875 C 220.191406 -72.578125 230.1875 -82.648438 237.5625 -96.640625 C 244.945312 -110.640625 248.640625 -129.320312 248.640625 -152.6875 C 248.640625 -175.445312 245.023438 -195.285156 237.796875 -212.203125 C 230.578125 -229.117188 220.738281 -242.265625 208.28125 -251.640625 C 195.820312 -261.023438 181.445312 -265.71875 165.15625 -265.71875 C 148.851562 -265.71875 134.394531 -261.023438 121.78125 -251.640625 C 109.175781 -242.265625 99.335938 -229.117188 92.265625 -212.203125 C 85.191406 -195.285156 81.65625 -175.445312 81.65625 -152.6875 C 81.65625 -129.320312 85.34375 -110.640625 92.71875 -96.640625 C 100.101562 -82.648438 110.097656 -72.578125 122.703125 -66.421875 C 135.316406 -60.273438 149.46875 -57.203125 165.15625 -57.203125 Z M 165.15625 -57.203125 "/></g></g></g><g fill="#000000" fill-opacity="1"><g transform="translate(1276.406714, 346.362178)"><g><path d="M 45.203125 107.953125 C 43.054688 107.953125 39.367188 107.71875 34.140625 107.25 C 28.910156 106.789062 24.601562 106.410156 21.21875 106.109375 C 14.757812 105.179688 11.53125 101.332031 11.53125 94.5625 C 11.53125 75.5 11.609375 52.585938 11.765625 25.828125 C 11.921875 -0.921875 12.378906 -29.597656 13.140625 -60.203125 C 13.910156 -90.804688 14.832031 -121.40625 15.90625 -152 C 16.988281 -182.601562 18.453125 -211.28125 20.296875 -238.03125 C 20.910156 -245.71875 24.601562 -250.023438 31.375 -250.953125 C 35.0625 -251.566406 39.519531 -252.023438 44.75 -252.328125 C 49.976562 -252.640625 53.664062 -252.796875 55.8125 -252.796875 C 57.96875 -252.796875 62.046875 -252.640625 68.046875 -252.328125 C 74.046875 -252.023438 78.734375 -251.566406 82.109375 -250.953125 C 85.191406 -250.648438 87.726562 -249.34375 89.71875 -247.03125 C 91.71875 -244.726562 92.410156 -241.726562 91.796875 -238.03125 C 91.179688 -234.957031 90.566406 -231.726562 89.953125 -228.34375 C 89.335938 -224.96875 88.878906 -221.894531 88.578125 -219.125 C 88.265625 -214.507812 89.179688 -211.894531 91.328125 -211.28125 C 93.484375 -210.664062 95.640625 -212.359375 97.796875 -216.359375 C 106.097656 -227.734375 117.015625 -236.957031 130.546875 -244.03125 C 144.078125 -251.101562 157.765625 -254.640625 171.609375 -254.640625 C 190.984375 -254.640625 208.128906 -249.875 223.046875 -240.34375 C 237.960938 -230.8125 249.648438 -216.664062 258.109375 -197.90625 C 266.566406 -179.144531 270.796875 -155.617188 270.796875 -127.328125 C 270.796875 -99.953125 266.257812 -76.421875 257.1875 -56.734375 C 248.113281 -37.054688 235.8125 -22.066406 220.28125 -11.765625 C 204.75 -1.460938 187.296875 3.6875 167.921875 3.6875 C 151.617188 3.6875 136.394531 -0.078125 122.25 -7.609375 C 108.101562 -15.140625 97.1875 -25.519531 89.5 -38.75 C 87.34375 -42.75 85.265625 -44.363281 83.265625 -43.59375 C 81.265625 -42.820312 80.113281 -40.128906 79.8125 -35.515625 C 79.5 -26.910156 79.421875 -16.765625 79.578125 -5.078125 C 79.734375 6.609375 80.039062 18.601562 80.5 30.90625 C 80.957031 43.207031 81.570312 54.894531 82.34375 65.96875 C 83.113281 77.039062 83.957031 86.421875 84.875 94.109375 C 85.488281 97.492188 84.644531 100.179688 82.34375 102.171875 C 80.039062 104.171875 77.347656 105.484375 74.265625 106.109375 C 70.890625 106.410156 65.816406 106.789062 59.046875 107.25 C 52.285156 107.71875 47.671875 107.953125 45.203125 107.953125 Z M 143.46875 -51.671875 C 161.613281 -51.671875 176.453125 -58.203125 187.984375 -71.265625 C 199.515625 -84.335938 205.28125 -102.253906 205.28125 -125.015625 C 205.28125 -148.691406 199.4375 -167.140625 187.75 -180.359375 C 176.0625 -193.585938 161.300781 -200.203125 143.46875 -200.203125 C 126.25 -200.203125 111.640625 -193.585938 99.640625 -180.359375 C 87.648438 -167.140625 81.65625 -148.691406 81.65625 -125.015625 C 81.65625 -102.253906 87.5 -84.335938 99.1875 -71.265625 C 110.875 -58.203125 125.632812 -51.671875 143.46875 -51.671875 Z M 143.46875 -51.671875 "/></g></g></g><g fill="#000000" fill-opacity="1"><g transform="translate(1555.489942, 346.362178)"><g><path d="M 140.703125 3.6875 C 125.015625 3.6875 110.789062 0.613281 98.03125 -5.53125 C 85.269531 -11.6875 75.117188 -20.914062 67.578125 -33.21875 C 60.046875 -45.519531 56.125 -60.742188 55.8125 -78.890625 C 55.8125 -89.648438 55.960938 -101.796875 56.265625 -115.328125 C 56.578125 -128.859375 57.039062 -142.617188 57.65625 -156.609375 C 58.28125 -170.609375 59.207031 -183.910156 60.4375 -196.515625 C 60.738281 -198.972656 59.96875 -200.972656 58.125 -202.515625 C 56.28125 -204.054688 54.28125 -204.828125 52.125 -204.828125 C 46.59375 -204.828125 40.90625 -204.828125 35.0625 -204.828125 C 29.21875 -204.828125 23.523438 -204.671875 17.984375 -204.359375 C 14.609375 -204.054688 11.6875 -205.210938 9.21875 -207.828125 C 6.757812 -210.441406 5.53125 -213.4375 5.53125 -216.8125 L 5.53125 -238.5 C 5.53125 -241.882812 6.757812 -244.804688 9.21875 -247.265625 C 11.6875 -249.722656 14.609375 -250.953125 17.984375 -250.953125 L 52.125 -250.953125 C 57.664062 -250.953125 60.4375 -253.875 60.4375 -259.71875 C 60.4375 -265.5625 60.585938 -271.632812 60.890625 -277.9375 C 61.203125 -284.238281 61.664062 -290.3125 62.28125 -296.15625 C 63.195312 -303.851562 67.039062 -308.160156 73.8125 -309.078125 C 77.8125 -309.691406 81.734375 -310.148438 85.578125 -310.453125 C 89.421875 -310.765625 93.1875 -310.921875 96.875 -310.921875 C 100.875 -310.921875 104.71875 -310.765625 108.40625 -310.453125 C 112.09375 -310.148438 115.9375 -309.691406 119.9375 -309.078125 C 123.007812 -308.773438 125.773438 -307.46875 128.234375 -305.15625 C 130.703125 -302.851562 131.628906 -299.851562 131.015625 -296.15625 C 130.703125 -290.007812 130.160156 -284.09375 129.390625 -278.40625 C 128.628906 -272.71875 128.25 -266.644531 128.25 -260.1875 C 128.25 -254.03125 131.015625 -250.953125 136.546875 -250.953125 C 146.390625 -250.953125 157.691406 -251.03125 170.453125 -251.1875 C 183.210938 -251.34375 194.363281 -251.570312 203.90625 -251.875 C 207.28125 -251.875 210.195312 -250.644531 212.65625 -248.1875 C 215.125 -245.726562 216.359375 -242.804688 216.359375 -239.421875 L 216.359375 -214.515625 C 216.359375 -211.128906 215.125 -208.128906 212.65625 -205.515625 C 210.195312 -202.898438 207.28125 -201.75 203.90625 -202.0625 C 199.90625 -202.675781 193.90625 -203.132812 185.90625 -203.4375 C 177.914062 -203.75 169.921875 -204.054688 161.921875 -204.359375 C 153.921875 -204.671875 147.769531 -204.671875 143.46875 -204.359375 C 132.394531 -204.359375 126.085938 -198.671875 124.546875 -187.296875 C 123.316406 -171.296875 122.703125 -154.222656 122.703125 -136.078125 C 122.703125 -117.941406 122.859375 -102.109375 123.171875 -88.578125 C 123.785156 -76.578125 127.164062 -68.039062 133.3125 -62.96875 C 139.46875 -57.894531 147.003906 -55.359375 155.921875 -55.359375 C 159.609375 -55.359375 164.679688 -56.050781 171.140625 -57.4375 C 177.597656 -58.820312 183.976562 -60.507812 190.28125 -62.5 C 196.59375 -64.5 201.132812 -66.425781 203.90625 -68.28125 C 207.894531 -72.582031 212.039062 -73.65625 216.34375 -71.5 C 220.65625 -69.351562 222.660156 -65.050781 222.359375 -58.59375 C 222.359375 -51.820312 222.28125 -45.59375 222.125 -39.90625 C 221.96875 -34.21875 221.890625 -28.296875 221.890625 -22.140625 C 221.585938 -15.066406 218.820312 -10.300781 213.59375 -7.84375 C 208.050781 -5.382812 200.742188 -3.226562 191.671875 -1.375 C 182.597656 0.46875 173.445312 1.769531 164.21875 2.53125 C 155 3.300781 147.160156 3.6875 140.703125 3.6875 Z M 140.703125 3.6875 "/></g></g></g><g fill="#000000" fill-opacity="1"><g transform="translate(1783.369504, 346.362178)"><g><path d="M 49.828125 -274.9375 C 38.441406 -274.9375 29.132812 -278.007812 21.90625 -284.15625 C 14.6875 -290.3125 11.078125 -298.160156 11.078125 -307.703125 C 11.078125 -317.535156 14.6875 -325.523438 21.90625 -331.671875 C 29.132812 -337.828125 38.441406 -340.90625 49.828125 -340.90625 C 61.515625 -340.90625 70.96875 -337.828125 78.1875 -331.671875 C 85.414062 -325.523438 89.03125 -317.535156 89.03125 -307.703125 C 89.03125 -298.160156 85.414062 -290.3125 78.1875 -284.15625 C 70.96875 -278.007812 61.515625 -274.9375 49.828125 -274.9375 Z M 50.75 1.84375 C 48.28125 1.84375 44.28125 1.765625 38.75 1.609375 C 33.21875 1.460938 28.453125 0.925781 24.453125 0 C 21.679688 -0.613281 19.296875 -2.070312 17.296875 -4.375 C 15.296875 -6.6875 14.296875 -9.6875 14.296875 -13.375 C 14.296875 -40.132812 14.375 -63.738281 14.53125 -84.1875 C 14.6875 -104.632812 14.914062 -123.394531 15.21875 -140.46875 C 15.53125 -157.539062 15.992188 -173.992188 16.609375 -189.828125 C 17.222656 -205.671875 18.144531 -222.203125 19.375 -239.421875 C 19.6875 -243.421875 20.609375 -246.265625 22.140625 -247.953125 C 23.679688 -249.648438 25.988281 -250.648438 29.0625 -250.953125 C 32.445312 -251.566406 36.367188 -252.023438 40.828125 -252.328125 C 45.285156 -252.640625 48.742188 -252.796875 51.203125 -252.796875 C 53.359375 -252.796875 56.429688 -252.640625 60.421875 -252.328125 C 64.421875 -252.023438 67.960938 -251.566406 71.046875 -250.953125 C 74.117188 -250.335938 76.421875 -249.257812 77.953125 -247.71875 C 79.492188 -246.1875 80.421875 -243.421875 80.734375 -239.421875 C 81.960938 -222.203125 82.882812 -205.671875 83.5 -189.828125 C 84.113281 -173.992188 84.570312 -157.539062 84.875 -140.46875 C 85.1875 -123.394531 85.414062 -104.554688 85.5625 -83.953125 C 85.71875 -63.347656 85.796875 -39.671875 85.796875 -12.921875 C 85.796875 -9.222656 84.796875 -6.296875 82.796875 -4.140625 C 80.804688 -1.992188 78.425781 -0.613281 75.65625 0 C 71.65625 0.613281 67.117188 1.070312 62.046875 1.375 C 56.972656 1.6875 53.207031 1.84375 50.75 1.84375 Z M 50.75 1.84375 "/></g></g></g><g fill="#000000" fill-opacity="1"><g transform="translate(1883.470469, 346.362178)"><g><path d="M 46.125 1.84375 C 43.664062 1.84375 39.820312 1.765625 34.59375 1.609375 C 29.363281 1.460938 24.753906 0.925781 20.765625 0 C 18.296875 -0.613281 16.0625 -2.070312 14.0625 -4.375 C 12.070312 -6.6875 11.078125 -9.6875 11.078125 -13.375 C 11.078125 -41.664062 11.148438 -66.113281 11.296875 -86.71875 C 11.453125 -107.332031 11.757812 -125.941406 12.21875 -142.546875 C 12.6875 -159.148438 13.300781 -175.140625 14.0625 -190.515625 C 14.832031 -205.898438 15.832031 -222.203125 17.0625 -239.421875 C 17.988281 -246.179688 21.375 -250.023438 27.21875 -250.953125 C 33.0625 -252.179688 40.90625 -252.796875 50.75 -252.796875 C 54.738281 -252.796875 59.039062 -252.640625 63.65625 -252.328125 C 68.269531 -252.023438 72.113281 -251.566406 75.1875 -250.953125 C 78.269531 -250.335938 80.804688 -249.109375 82.796875 -247.265625 C 84.796875 -245.421875 85.488281 -242.804688 84.875 -239.421875 C 83.957031 -234.191406 83.035156 -229.5 82.109375 -225.34375 C 81.191406 -221.195312 80.734375 -217.429688 80.734375 -214.046875 C 80.734375 -208.816406 81.804688 -205.816406 83.953125 -205.046875 C 86.109375 -204.285156 88.265625 -206.363281 90.421875 -211.28125 C 96.878906 -224.8125 106.023438 -235.421875 117.859375 -243.109375 C 129.703125 -250.796875 142.082031 -254.640625 155 -254.640625 C 168.84375 -254.640625 181.453125 -251.488281 192.828125 -245.1875 C 204.203125 -238.882812 213.117188 -229.425781 219.578125 -216.8125 C 225.421875 -202.976562 231.570312 -202.828125 238.03125 -216.359375 C 244.800781 -228.046875 254.101562 -237.347656 265.9375 -244.265625 C 277.78125 -251.179688 291.546875 -254.640625 307.234375 -254.640625 C 322.609375 -254.640625 336.753906 -250.179688 349.671875 -241.265625 C 362.585938 -232.347656 373.117188 -219.203125 381.265625 -201.828125 C 389.421875 -184.453125 393.960938 -163.15625 394.890625 -137.9375 C 395.503906 -121.019531 396.269531 -101.796875 397.1875 -80.265625 C 398.113281 -58.734375 398.578125 -36.4375 398.578125 -13.375 C 398.578125 -9.375 397.578125 -6.296875 395.578125 -4.140625 C 393.578125 -1.992188 391.039062 -0.613281 387.96875 0 C 383.96875 0.613281 379.890625 1.070312 375.734375 1.375 C 371.585938 1.6875 368.285156 1.84375 365.828125 1.84375 C 362.742188 1.84375 358.203125 1.765625 352.203125 1.609375 C 346.210938 1.460938 341.066406 0.925781 336.765625 0 C 333.679688 -0.613281 330.984375 -1.992188 328.671875 -4.140625 C 326.367188 -6.296875 325.375 -9.222656 325.6875 -12.921875 C 326.613281 -24.296875 327.304688 -36.976562 327.765625 -50.96875 C 328.222656 -64.96875 328.53125 -78.5 328.6875 -91.5625 C 328.84375 -104.632812 328.765625 -115.171875 328.453125 -123.171875 C 328.148438 -144.390625 323.84375 -161.070312 315.53125 -173.21875 C 307.226562 -185.363281 296.3125 -191.4375 282.78125 -191.4375 C 270.789062 -191.4375 260.410156 -185.128906 251.640625 -172.515625 C 242.878906 -159.910156 238.5 -142.234375 238.5 -119.484375 C 238.5 -103.796875 238.726562 -86.492188 239.1875 -67.578125 C 239.644531 -48.671875 240.492188 -30.601562 241.734375 -13.375 C 242.347656 -9.375 241.5 -6.296875 239.1875 -4.140625 C 236.882812 -1.992188 234.039062 -0.613281 230.65625 0 C 226.96875 0.613281 222.96875 1.070312 218.65625 1.375 C 214.351562 1.6875 210.816406 1.84375 208.046875 1.84375 C 204.972656 1.84375 200.4375 1.765625 194.4375 1.609375 C 188.445312 1.460938 183.144531 0.925781 178.53125 0 C 175.757812 -0.613281 173.21875 -1.992188 170.90625 -4.140625 C 168.601562 -6.296875 167.609375 -9.222656 167.921875 -12.921875 C 168.535156 -24.910156 169.070312 -37.515625 169.53125 -50.734375 C 169.988281 -63.960938 170.296875 -76.957031 170.453125 -89.71875 C 170.609375 -102.488281 170.53125 -113.640625 170.21875 -123.171875 C 169.914062 -144.390625 165.613281 -161.070312 157.3125 -173.21875 C 149.007812 -185.363281 138.085938 -191.4375 124.546875 -191.4375 C 112.253906 -191.4375 101.878906 -184.976562 93.421875 -172.0625 C 84.960938 -159.144531 80.425781 -141.3125 79.8125 -118.5625 C 79.195312 -101.332031 78.960938 -84.03125 79.109375 -66.65625 C 79.265625 -49.28125 79.804688 -31.367188 80.734375 -12.921875 C 81.035156 -9.222656 80.109375 -6.296875 77.953125 -4.140625 C 75.804688 -1.992188 73.347656 -0.613281 70.578125 0 C 66.890625 0.613281 62.507812 1.070312 57.4375 1.375 C 52.363281 1.6875 48.59375 1.84375 46.125 1.84375 Z M 46.125 1.84375 "/></g></g></g><g fill="#000000" fill-opacity="1"><g transform="translate(2292.638775, 346.362178)"><g><path d="M 86.265625 3.6875 C 62.890625 3.6875 44.050781 -1.847656 29.75 -12.921875 C 15.445312 -23.992188 8.296875 -42.597656 8.296875 -68.734375 C 8.296875 -91.796875 16.523438 -110.015625 32.984375 -123.390625 C 49.441406 -136.773438 72.125 -145.925781 101.03125 -150.84375 C 127.476562 -154.539062 146.082031 -158.3125 156.84375 -162.15625 C 167.613281 -166 173 -172.070312 173 -180.375 C 173 -185.289062 169.613281 -189.898438 162.84375 -194.203125 C 156.070312 -198.515625 144.539062 -200.671875 128.25 -200.671875 C 114.40625 -200.671875 100.101562 -198.515625 85.34375 -194.203125 C 70.582031 -189.898438 57.664062 -182.832031 46.59375 -173 C 43.207031 -168.070312 39.285156 -166.679688 34.828125 -168.828125 C 30.367188 -170.984375 28.289062 -175.445312 28.59375 -182.21875 C 28.90625 -185.601562 29.367188 -190.289062 29.984375 -196.28125 C 30.597656 -202.28125 31.289062 -208.351562 32.0625 -214.5 C 32.832031 -220.65625 33.367188 -225.269531 33.671875 -228.34375 C 34.597656 -235.726562 37.675781 -240.5 42.90625 -242.65625 C 68.425781 -250.644531 96.101562 -254.640625 125.9375 -254.640625 C 161.300781 -254.640625 188.75 -247.023438 208.28125 -231.796875 C 227.8125 -216.578125 239.113281 -192.207031 242.1875 -158.6875 C 243.113281 -147 244.035156 -132.546875 244.953125 -115.328125 C 245.878906 -98.109375 246.800781 -80.578125 247.71875 -62.734375 C 248.644531 -44.898438 249.414062 -28.910156 250.03125 -14.765625 C 250.03125 -6.765625 245.722656 -2 237.109375 -0.46875 C 234.035156 0.457031 230.191406 1.070312 225.578125 1.375 C 220.960938 1.6875 216.503906 1.84375 212.203125 1.84375 C 208.515625 1.84375 203.820312 1.6875 198.125 1.375 C 192.4375 1.070312 187.75 0.457031 184.0625 -0.46875 C 180.0625 -1.082031 176.832031 -2.847656 174.375 -5.765625 C 171.914062 -8.691406 170.992188 -12.148438 171.609375 -16.140625 C 172.222656 -19.222656 172.914062 -23.222656 173.6875 -28.140625 C 174.457031 -33.054688 174.992188 -37.976562 175.296875 -42.90625 C 175.910156 -47.207031 174.910156 -49.742188 172.296875 -50.515625 C 169.679688 -51.285156 167.453125 -49.671875 165.609375 -45.671875 C 158.535156 -30.597656 147.617188 -18.601562 132.859375 -9.6875 C 118.097656 -0.769531 102.566406 3.6875 86.265625 3.6875 Z M 117.640625 -53.515625 C 125.328125 -53.515625 133.398438 -55.507812 141.859375 -59.5 C 150.316406 -63.5 157.460938 -69.265625 163.296875 -76.796875 C 169.140625 -84.335938 172.0625 -93.488281 172.0625 -104.25 C 172.0625 -111.632812 169.832031 -117.707031 165.375 -122.46875 C 160.914062 -127.238281 153.304688 -129.625 142.546875 -129.625 C 131.785156 -129.625 121.484375 -127.625 111.640625 -123.625 C 101.796875 -119.632812 93.796875 -114.175781 87.640625 -107.25 C 81.492188 -100.332031 78.421875 -92.109375 78.421875 -82.578125 C 78.421875 -72.117188 81.492188 -64.660156 87.640625 -60.203125 C 93.796875 -55.742188 103.796875 -53.515625 117.640625 -53.515625 Z M 117.640625 -53.515625 "/></g></g></g><g fill="#000000" fill-opacity="1"><g transform="translate(2553.270286, 346.362178)"><g><path d="M 154.546875 3.6875 C 141.316406 3.6875 126.394531 2.6875 109.78125 0.6875 C 93.175781 -1.3125 76.800781 -4.15625 60.65625 -7.84375 C 44.507812 -11.53125 30.132812 -15.53125 17.53125 -19.84375 C 12.300781 -21.6875 9.6875 -26.296875 9.6875 -33.671875 C 9.6875 -43.828125 9.765625 -53.898438 9.921875 -63.890625 C 10.078125 -73.890625 10.304688 -83.960938 10.609375 -94.109375 C 10.609375 -100.566406 12.757812 -104.5625 17.0625 -106.09375 C 21.375 -107.632812 25.21875 -106.253906 28.59375 -101.953125 C 43.976562 -85.347656 62.507812 -73.351562 84.1875 -65.96875 C 105.875 -58.582031 128.554688 -54.890625 152.234375 -54.890625 C 172.535156 -54.890625 188.757812 -57.890625 200.90625 -63.890625 C 213.050781 -69.890625 219.125 -78.734375 219.125 -90.421875 C 219.125 -99.335938 215.507812 -106.867188 208.28125 -113.015625 C 201.050781 -119.171875 191.4375 -124.628906 179.4375 -129.390625 C 167.445312 -134.160156 154.300781 -138.695312 140 -143 C 125.707031 -147.3125 111.484375 -152.003906 97.328125 -157.078125 C 83.179688 -162.148438 70.113281 -168.375 58.125 -175.75 C 46.132812 -183.132812 36.523438 -192.128906 29.296875 -202.734375 C 22.066406 -213.347656 18.453125 -226.191406 18.453125 -241.265625 C 18.453125 -260.640625 24.445312 -276.628906 36.4375 -289.234375 C 48.4375 -301.847656 64.738281 -311.226562 85.34375 -317.375 C 105.945312 -323.53125 129.015625 -326.609375 154.546875 -326.609375 C 172.066406 -326.609375 190.359375 -324.914062 209.421875 -321.53125 C 228.492188 -318.144531 245.414062 -313.222656 260.1875 -306.765625 C 265.71875 -303.691406 268.484375 -299.234375 268.484375 -293.390625 L 268.484375 -241.734375 C 268.484375 -235.890625 266.40625 -231.96875 262.25 -229.96875 C 258.101562 -227.96875 254.335938 -228.96875 250.953125 -232.96875 C 238.035156 -244.65625 223.425781 -253.492188 207.125 -259.484375 C 190.832031 -265.484375 174.378906 -268.484375 157.765625 -268.484375 C 146.390625 -268.484375 135.550781 -267.328125 125.25 -265.015625 C 114.945312 -262.710938 106.566406 -259.253906 100.109375 -254.640625 C 93.648438 -250.023438 90.421875 -244.03125 90.421875 -236.65625 C 90.421875 -228.351562 94.109375 -221.28125 101.484375 -215.4375 C 108.867188 -209.59375 118.554688 -204.363281 130.546875 -199.75 C 142.546875 -195.132812 155.769531 -190.519531 170.21875 -185.90625 C 184.675781 -181.289062 199.054688 -176.289062 213.359375 -170.90625 C 227.660156 -165.53125 240.804688 -159.070312 252.796875 -151.53125 C 264.796875 -144 274.484375 -135.003906 281.859375 -124.546875 C 289.242188 -114.097656 292.9375 -101.492188 292.9375 -86.734375 C 292.9375 -58.429688 280.632812 -36.285156 256.03125 -20.296875 C 231.425781 -4.304688 197.597656 3.6875 154.546875 3.6875 Z M 154.546875 3.6875 "/></g></g></g><g fill="#000000" fill-opacity="1"><g transform="translate(2855.418298, 346.362178)"><g><path d="M 113.484375 3.6875 C 78.421875 3.6875 52.738281 -7.378906 36.4375 -29.515625 C 20.144531 -51.660156 12 -81.648438 12 -119.484375 C 12 -137.015625 12.535156 -155.003906 13.609375 -173.453125 C 14.679688 -191.898438 16.296875 -213.425781 18.453125 -238.03125 C 18.753906 -245.414062 22.445312 -249.878906 29.53125 -251.421875 C 33.21875 -252.035156 37.367188 -252.492188 41.984375 -252.796875 C 46.597656 -253.109375 49.976562 -253.265625 52.125 -253.265625 C 55.195312 -253.265625 59.734375 -253.109375 65.734375 -252.796875 C 71.734375 -252.492188 76.882812 -252.035156 81.1875 -251.421875 C 84.257812 -250.804688 86.875 -249.421875 89.03125 -247.265625 C 91.1875 -245.109375 91.957031 -242.1875 91.34375 -238.5 C 89.800781 -227.738281 88.179688 -215.972656 86.484375 -203.203125 C 84.796875 -190.441406 83.414062 -177.910156 82.34375 -165.609375 C 81.269531 -153.304688 80.734375 -142.695312 80.734375 -133.78125 C 80.734375 -109.175781 85.5 -89.875 95.03125 -75.875 C 104.5625 -61.882812 119.9375 -54.890625 141.15625 -54.890625 C 157.769531 -54.890625 171.148438 -62.347656 181.296875 -77.265625 C 191.441406 -92.179688 196.515625 -112.097656 196.515625 -137.015625 C 196.515625 -150.546875 195.820312 -166.535156 194.4375 -184.984375 C 193.0625 -203.441406 190.832031 -221.125 187.75 -238.03125 C 187.132812 -241.726562 187.90625 -244.726562 190.0625 -247.03125 C 192.21875 -249.34375 194.675781 -250.804688 197.4375 -251.421875 C 200.820312 -252.035156 205.28125 -252.492188 210.8125 -252.796875 C 216.351562 -253.109375 220.96875 -253.265625 224.65625 -253.265625 C 228.96875 -253.265625 233.425781 -253.109375 238.03125 -252.796875 C 242.644531 -252.492188 246.953125 -252.035156 250.953125 -251.421875 C 257.410156 -250.492188 261.101562 -246.03125 262.03125 -238.03125 C 263.875 -211.28125 265.253906 -187.832031 266.171875 -167.6875 C 267.097656 -147.539062 267.789062 -129.085938 268.25 -112.328125 C 268.707031 -95.566406 268.859375 -79.265625 268.703125 -63.421875 C 268.554688 -47.585938 268.484375 -30.445312 268.484375 -12 C 268.484375 -5.226562 265.40625 -1.070312 259.25 0.46875 C 256.175781 1.082031 252.5625 1.539062 248.40625 1.84375 C 244.257812 2.15625 240.1875 2.3125 236.1875 2.3125 C 232.1875 2.3125 227.878906 2.078125 223.265625 1.609375 C 218.660156 1.148438 214.203125 0.769531 209.890625 0.46875 C 206.816406 -0.15625 204.28125 -1.617188 202.28125 -3.921875 C 200.28125 -6.222656 199.585938 -9.066406 200.203125 -12.453125 C 200.816406 -16.753906 201.203125 -20.90625 201.359375 -24.90625 C 201.515625 -28.90625 201.59375 -32.441406 201.59375 -35.515625 C 201.59375 -40.742188 200.59375 -43.507812 198.59375 -43.8125 C 196.59375 -44.125 194.363281 -42.128906 191.90625 -37.828125 C 182.0625 -23.367188 170.757812 -12.832031 158 -6.21875 C 145.238281 0.382812 130.398438 3.6875 113.484375 3.6875 Z M 113.484375 3.6875 "/></g></g></g><g fill="#000000" fill-opacity="1"><g transform="translate(3135.424034, 346.362178)"><g><path d="M 47.046875 1.84375 C 44.585938 1.84375 40.742188 1.6875 35.515625 1.375 C 30.285156 1.070312 25.675781 0.613281 21.6875 0 C 18.914062 -0.613281 16.53125 -1.992188 14.53125 -4.140625 C 12.53125 -6.296875 11.53125 -9.222656 11.53125 -12.921875 C 11.53125 -39.671875 11.609375 -63.347656 11.765625 -83.953125 C 11.921875 -104.554688 12.148438 -123.394531 12.453125 -140.46875 C 12.765625 -157.539062 13.300781 -173.992188 14.0625 -189.828125 C 14.832031 -205.671875 15.832031 -222.203125 17.0625 -239.421875 C 17.988281 -246.179688 21.375 -250.023438 27.21875 -250.953125 C 30.601562 -251.566406 34.597656 -252.023438 39.203125 -252.328125 C 43.816406 -252.640625 48.125 -252.796875 52.125 -252.796875 C 55.820312 -252.796875 60.4375 -252.640625 65.96875 -252.328125 C 71.5 -252.023438 75.648438 -251.566406 78.421875 -250.953125 C 82.109375 -250.335938 84.953125 -248.875 86.953125 -246.5625 C 88.953125 -244.257812 89.492188 -241.570312 88.578125 -238.5 C 87.035156 -232.65625 85.722656 -227.425781 84.640625 -222.8125 C 83.566406 -218.195312 83.03125 -212.816406 83.03125 -206.671875 C 83.03125 -202.054688 84.257812 -199.363281 86.71875 -198.59375 C 89.1875 -197.820312 91.34375 -199.898438 93.1875 -204.828125 C 100.5625 -222.359375 111.09375 -234.96875 124.78125 -242.65625 C 138.46875 -250.34375 153.769531 -254.1875 170.6875 -254.1875 C 177.757812 -254.1875 185.140625 -253.335938 192.828125 -251.640625 C 200.515625 -249.953125 206.820312 -247.722656 211.75 -244.953125 C 217.894531 -241.566406 220.96875 -236.800781 220.96875 -230.65625 C 220.96875 -221.125 220.890625 -212.28125 220.734375 -204.125 C 220.578125 -195.976562 220.191406 -186.984375 219.578125 -177.140625 C 219.273438 -171.296875 216.894531 -167.757812 212.4375 -166.53125 C 207.976562 -165.300781 204.054688 -166.53125 200.671875 -170.21875 C 192.367188 -177.289062 183.679688 -182.132812 174.609375 -184.75 C 165.535156 -187.363281 156.382812 -188.671875 147.15625 -188.671875 C 135.78125 -188.671875 125.09375 -185.519531 115.09375 -179.21875 C 105.101562 -172.914062 97.03125 -163.84375 90.875 -152 C 84.726562 -140.15625 81.65625 -125.929688 81.65625 -109.328125 C 81.65625 -97.640625 82.035156 -85.566406 82.796875 -73.109375 C 83.566406 -60.660156 84.414062 -49.128906 85.34375 -38.515625 C 86.269531 -27.910156 86.882812 -19.378906 87.1875 -12.921875 C 87.5 -8.921875 86.5 -5.84375 84.1875 -3.6875 C 81.882812 -1.539062 79.347656 -0.15625 76.578125 0.46875 C 73.191406 0.769531 68.65625 1.070312 62.96875 1.375 C 57.28125 1.6875 51.972656 1.84375 47.046875 1.84375 Z M 47.046875 1.84375 "/></g></g></g><g fill="#000000" fill-opacity="1"><g transform="translate(3364.226208, 346.362178)"><g><path d="M 132.859375 109.796875 C 121.484375 109.796875 109.023438 109.410156 95.484375 108.640625 C 81.953125 107.867188 68.804688 106.632812 56.046875 104.9375 C 43.285156 103.25 31.984375 100.867188 22.140625 97.796875 C 14.453125 94.722656 11.070312 89.34375 12 81.65625 L 16.140625 31.375 C 16.753906 26.144531 19.0625 22.835938 23.0625 21.453125 C 27.0625 20.066406 30.597656 21.21875 33.671875 24.90625 C 44.441406 32.289062 57.4375 37.976562 72.65625 41.96875 C 87.875 45.96875 102.5625 47.96875 116.71875 47.96875 C 132.707031 47.96875 147.160156 44.96875 160.078125 38.96875 C 172.992188 32.976562 183.296875 24.597656 190.984375 13.828125 C 198.671875 3.066406 202.515625 -9.535156 202.515625 -23.984375 L 202.515625 -31.828125 C 202.515625 -37.671875 200.898438 -40.742188 197.671875 -41.046875 C 194.441406 -41.359375 191.597656 -39.054688 189.140625 -34.140625 C 180.835938 -20.910156 169.84375 -11.21875 156.15625 -5.0625 C 142.46875 1.082031 127.164062 4.15625 110.25 4.15625 C 91.1875 4.15625 74.117188 -0.765625 59.046875 -10.609375 C 43.972656 -20.453125 32.128906 -34.984375 23.515625 -54.203125 C 14.910156 -73.421875 10.609375 -97.023438 10.609375 -125.015625 C 10.609375 -152.390625 14.910156 -175.6875 23.515625 -194.90625 C 32.128906 -214.125 43.972656 -228.882812 59.046875 -239.1875 C 74.117188 -249.488281 91.1875 -254.640625 110.25 -254.640625 C 126.863281 -254.640625 142.085938 -250.945312 155.921875 -243.5625 C 169.765625 -236.1875 181.144531 -225.582031 190.0625 -211.75 C 192.21875 -208.050781 194.289062 -206.429688 196.28125 -206.890625 C 198.28125 -207.359375 199.128906 -210.050781 198.828125 -214.96875 C 198.515625 -218.351562 198.050781 -222.195312 197.4375 -226.5 C 196.820312 -230.8125 196.207031 -234.960938 195.59375 -238.953125 C 195.289062 -242.335938 196.132812 -245.03125 198.125 -247.03125 C 200.125 -249.03125 202.664062 -250.335938 205.75 -250.953125 C 208.507812 -251.566406 212.273438 -252.023438 217.046875 -252.328125 C 221.816406 -252.640625 226.507812 -252.796875 231.125 -252.796875 C 235.425781 -252.796875 239.570312 -252.640625 243.5625 -252.328125 C 247.5625 -252.023438 251.101562 -251.566406 254.1875 -250.953125 C 260.332031 -249.410156 263.867188 -245.566406 264.796875 -239.421875 C 267.867188 -212.359375 269.710938 -179.988281 270.328125 -142.3125 C 270.941406 -104.632812 271.25 -63.347656 271.25 -18.453125 C 271.25 12.910156 265.328125 37.972656 253.484375 56.734375 C 241.648438 75.492188 225.351562 89.023438 204.59375 97.328125 C 183.832031 105.640625 159.921875 109.796875 132.859375 109.796875 Z M 138.390625 -50.28125 C 155.921875 -50.28125 170.601562 -56.96875 182.4375 -70.34375 C 194.28125 -83.726562 200.203125 -102.257812 200.203125 -125.9375 C 200.203125 -148.695312 194.4375 -166.535156 182.90625 -179.453125 C 171.375 -192.367188 156.535156 -198.976562 138.390625 -199.28125 C 120.242188 -199.28125 105.40625 -192.742188 93.875 -179.671875 C 82.34375 -166.609375 76.578125 -148.695312 76.578125 -125.9375 C 76.578125 -102.257812 82.421875 -83.726562 94.109375 -70.34375 C 105.796875 -56.96875 120.554688 -50.28125 138.390625 -50.28125 Z M 138.390625 -50.28125 "/></g></g></g><g fill="#000000" fill-opacity="1"><g transform="translate(3646.538426, 346.362178)"><g><path d="M 142.546875 3.6875 C 115.484375 3.6875 91.878906 -1.460938 71.734375 -11.765625 C 51.585938 -22.066406 35.976562 -37.054688 24.90625 -56.734375 C 13.832031 -76.421875 8.296875 -100.257812 8.296875 -128.25 C 8.296875 -155.3125 13.601562 -178.222656 24.21875 -196.984375 C 34.832031 -215.742188 49.363281 -230.039062 67.8125 -239.875 C 86.257812 -249.71875 107.171875 -254.640625 130.546875 -254.640625 C 163.148438 -254.640625 189.519531 -247.332031 209.65625 -232.71875 C 229.800781 -218.113281 239.875 -196.664062 239.875 -168.375 C 239.875 -153.3125 235.800781 -140.007812 227.65625 -128.46875 C 219.507812 -116.9375 208.742188 -108.019531 195.359375 -101.71875 C 181.984375 -95.414062 167.609375 -92.265625 152.234375 -92.265625 C 139.617188 -92.265625 127.390625 -93.335938 115.546875 -95.484375 C 103.710938 -97.640625 93.335938 -101.179688 84.421875 -106.109375 C 79.804688 -109.179688 76.421875 -109.410156 74.265625 -106.796875 C 72.117188 -104.179688 72.582031 -100.722656 75.65625 -96.421875 C 79.34375 -87.804688 85.257812 -80.113281 93.40625 -73.34375 C 101.5625 -66.582031 110.867188 -61.28125 121.328125 -57.4375 C 131.785156 -53.59375 142.238281 -51.671875 152.6875 -51.671875 C 164.6875 -51.671875 177.453125 -54.285156 190.984375 -59.515625 C 204.515625 -64.742188 215.585938 -71.351562 224.203125 -79.34375 C 227.578125 -83.644531 231.1875 -85.101562 235.03125 -83.71875 C 238.882812 -82.34375 240.960938 -78.578125 241.265625 -72.421875 C 241.878906 -65.660156 242.265625 -58.742188 242.421875 -51.671875 C 242.578125 -44.597656 242.804688 -37.675781 243.109375 -30.90625 C 243.109375 -25.0625 241.109375 -20.910156 237.109375 -18.453125 C 225.734375 -10.765625 211.203125 -5.148438 193.515625 -1.609375 C 175.835938 1.921875 158.847656 3.6875 142.546875 3.6875 Z M 134.234375 -127.78125 C 147.460938 -127.78125 157.921875 -131.085938 165.609375 -137.703125 C 173.296875 -144.316406 177.140625 -153.3125 177.140625 -164.6875 C 177.140625 -176.6875 173.601562 -186.066406 166.53125 -192.828125 C 159.457031 -199.597656 147.769531 -202.984375 131.46875 -202.984375 C 122.25 -202.984375 113.175781 -201.054688 104.25 -197.203125 C 95.332031 -193.359375 88.03125 -187.898438 82.34375 -180.828125 C 76.65625 -173.753906 73.8125 -165.144531 73.8125 -155 C 73.8125 -148.851562 77.191406 -143.703125 83.953125 -139.546875 C 90.722656 -135.390625 98.796875 -132.390625 108.171875 -130.546875 C 117.554688 -128.703125 126.242188 -127.78125 134.234375 -127.78125 Z M 134.234375 -127.78125 "/></g></g></g><g fill="#000000" fill-opacity="1"><g transform="translate(946.581072, 637.022784)"><g><path d="M 17.0625 -159.15625 C 23.21875 -160.382812 30.789062 -161.535156 39.78125 -162.609375 C 48.78125 -163.691406 58.660156 -164.234375 69.421875 -164.234375 C 81.578125 -164.234375 92.378906 -162.347656 101.828125 -158.578125 C 111.285156 -154.804688 119.320312 -149.460938 125.9375 -142.546875 C 132.550781 -135.628906 137.585938 -127.25 141.046875 -117.40625 C 144.503906 -107.5625 146.234375 -96.644531 146.234375 -84.65625 C 146.234375 -72.039062 144.269531 -60.390625 140.34375 -49.703125 C 136.425781 -39.015625 130.890625 -29.785156 123.734375 -22.015625 C 116.585938 -14.253906 108.015625 -8.179688 98.015625 -3.796875 C 88.023438 0.578125 76.878906 2.765625 64.578125 2.765625 C 53.972656 2.765625 44.554688 2.492188 36.328125 1.953125 C 28.097656 1.421875 21.445312 0.769531 16.375 0 C 16.53125 -7.382812 16.722656 -13.878906 16.953125 -19.484375 C 17.179688 -25.097656 17.375 -30.941406 17.53125 -37.015625 C 17.6875 -43.085938 17.835938 -50.046875 17.984375 -57.890625 C 18.140625 -65.734375 18.21875 -75.578125 18.21875 -87.421875 C 18.21875 -99.253906 18.140625 -111.050781 17.984375 -122.8125 C 17.835938 -134.582031 17.53125 -146.695312 17.0625 -159.15625 Z M 66.203125 -143.46875 C 63.585938 -143.46875 60.78125 -143.195312 57.78125 -142.65625 C 54.78125 -142.125 51.742188 -141.472656 48.671875 -140.703125 C 48.359375 -133.316406 48.203125 -125.007812 48.203125 -115.78125 C 48.203125 -106.5625 48.203125 -95.335938 48.203125 -82.109375 C 48.203125 -68.421875 48.203125 -56.578125 48.203125 -46.578125 C 48.203125 -36.585938 48.28125 -27.210938 48.4375 -18.453125 C 51.664062 -16.910156 55.203125 -16.140625 59.046875 -16.140625 C 66.890625 -16.140625 74.234375 -17.367188 81.078125 -19.828125 C 87.921875 -22.296875 93.878906 -26.21875 98.953125 -31.59375 C 104.023438 -36.976562 108.019531 -43.859375 110.9375 -52.234375 C 113.863281 -60.617188 115.328125 -70.8125 115.328125 -82.8125 C 115.328125 -94.488281 114.210938 -104.207031 111.984375 -111.96875 C 109.753906 -119.738281 106.484375 -125.96875 102.171875 -130.65625 C 97.867188 -135.351562 92.679688 -138.660156 86.609375 -140.578125 C 80.535156 -142.503906 73.734375 -143.46875 66.203125 -143.46875 Z M 66.203125 -143.46875 "/></g></g></g><g fill="#000000" fill-opacity="1"><g transform="translate(1101.344897, 637.022784)"><g><path d="M 45.671875 -115.328125 C 45.210938 -111.785156 44.863281 -108.398438 44.625 -105.171875 C 44.394531 -101.941406 44.242188 -98.367188 44.171875 -94.453125 C 44.097656 -90.535156 44.019531 -86 43.9375 -80.84375 C 43.863281 -75.695312 43.828125 -69.585938 43.828125 -62.515625 C 43.828125 -55.429688 43.828125 -49.046875 43.828125 -43.359375 C 43.828125 -37.671875 43.863281 -32.363281 43.9375 -27.4375 C 44.019531 -22.519531 44.097656 -17.867188 44.171875 -13.484375 C 44.242188 -9.109375 44.359375 -4.613281 44.515625 0 L 13.375 0 C 13.53125 -5.6875 13.722656 -10.679688 13.953125 -14.984375 C 14.179688 -19.296875 14.375 -23.875 14.53125 -28.71875 C 14.6875 -33.5625 14.835938 -39.019531 14.984375 -45.09375 C 15.140625 -51.164062 15.21875 -58.738281 15.21875 -67.8125 C 15.21875 -76.113281 15.140625 -83.914062 14.984375 -91.21875 C 14.835938 -98.53125 14.53125 -106.566406 14.0625 -115.328125 Z M 13.375 -152.921875 C 13.375 -157.234375 14.875 -160.960938 17.875 -164.109375 C 20.875 -167.265625 24.988281 -168.84375 30.21875 -168.84375 C 34.675781 -168.84375 38.554688 -167.535156 41.859375 -164.921875 C 45.171875 -162.304688 46.828125 -158.769531 46.828125 -154.3125 C 46.828125 -150 45.25 -146.378906 42.09375 -143.453125 C 38.9375 -140.535156 34.75 -139.078125 29.53125 -139.078125 C 25.0625 -139.078125 21.25 -140.269531 18.09375 -142.65625 C 14.945312 -145.039062 13.375 -148.460938 13.375 -152.921875 Z M 13.375 -152.921875 "/></g></g></g><g fill="#000000" fill-opacity="1"><g transform="translate(1159.929148, 637.022784)"><g><path d="M 112.328125 -0.921875 C 112.328125 6.304688 110.328125 12.957031 106.328125 19.03125 C 102.328125 25.101562 96.90625 30.328125 90.0625 34.703125 C 83.226562 39.085938 75.390625 42.507812 66.546875 44.96875 C 57.703125 47.4375 48.4375 48.671875 38.75 48.671875 C 33.0625 48.671875 27.796875 48.207031 22.953125 47.28125 C 18.109375 46.363281 13.957031 44.90625 10.5 42.90625 C 7.039062 40.90625 4.3125 38.363281 2.3125 35.28125 C 0.3125 32.207031 -0.6875 28.597656 -0.6875 24.453125 C -0.6875 18.609375 1.117188 13.6875 4.734375 9.6875 C 8.347656 5.6875 13.535156 1.6875 20.296875 -2.3125 C 16.765625 -3.539062 13.878906 -5.382812 11.640625 -7.84375 C 9.410156 -10.300781 8.296875 -13.679688 8.296875 -17.984375 C 8.296875 -20.910156 8.832031 -23.679688 9.90625 -26.296875 C 10.988281 -28.910156 12.453125 -31.289062 14.296875 -33.4375 C 16.140625 -35.59375 18.210938 -37.59375 20.515625 -39.4375 C 22.828125 -41.28125 25.210938 -42.972656 27.671875 -44.515625 C 22.296875 -47.898438 18.109375 -52.207031 15.109375 -57.4375 C 12.109375 -62.664062 10.609375 -68.660156 10.609375 -75.421875 C 10.609375 -81.421875 11.835938 -87.035156 14.296875 -92.265625 C 16.753906 -97.492188 20.175781 -101.988281 24.5625 -105.75 C 28.945312 -109.519531 34.210938 -112.519531 40.359375 -114.75 C 46.515625 -116.976562 53.207031 -118.09375 60.4375 -118.09375 C 63.351562 -118.09375 66.117188 -117.898438 68.734375 -117.515625 C 71.347656 -117.128906 73.882812 -116.554688 76.34375 -115.796875 C 77.269531 -117.484375 78.804688 -119.671875 80.953125 -122.359375 C 83.109375 -125.054688 85.6875 -127.707031 88.6875 -130.3125 C 91.6875 -132.925781 95.109375 -135.269531 98.953125 -137.34375 C 102.796875 -139.425781 106.796875 -140.695312 110.953125 -141.15625 L 112.09375 -114.640625 C 107.789062 -114.640625 103.5625 -114.289062 99.40625 -113.59375 C 95.257812 -112.90625 91.492188 -111.945312 88.109375 -110.71875 C 93.335938 -107.332031 97.375 -103.023438 100.21875 -97.796875 C 103.0625 -92.566406 104.484375 -86.722656 104.484375 -80.265625 C 104.484375 -74.117188 103.210938 -68.429688 100.671875 -63.203125 C 98.140625 -57.972656 94.679688 -53.472656 90.296875 -49.703125 C 85.921875 -45.941406 80.691406 -43.019531 74.609375 -40.9375 C 68.535156 -38.863281 61.960938 -37.828125 54.890625 -37.828125 C 48.742188 -37.828125 42.898438 -38.671875 37.359375 -40.359375 C 35.515625 -37.742188 34.59375 -34.976562 34.59375 -32.0625 C 34.59375 -27.90625 36.285156 -25.25 39.671875 -24.09375 C 43.054688 -22.945312 47.207031 -22.375 52.125 -22.375 C 54.894531 -22.375 57.851562 -22.445312 61 -22.59375 C 64.15625 -22.75 67.269531 -22.941406 70.34375 -23.171875 C 73.425781 -23.410156 76.347656 -23.601562 79.109375 -23.75 C 81.878906 -23.90625 84.1875 -23.984375 86.03125 -23.984375 C 94.488281 -23.984375 100.984375 -22.0625 105.515625 -18.21875 C 110.054688 -14.375 112.328125 -8.609375 112.328125 -0.921875 Z M 58.125 -99.640625 C 51.050781 -99.640625 45.628906 -97.488281 41.859375 -93.1875 C 38.097656 -88.882812 36.21875 -83.503906 36.21875 -77.046875 C 36.21875 -70.273438 38.140625 -65.039062 41.984375 -61.34375 C 45.828125 -57.65625 50.820312 -55.8125 56.96875 -55.8125 C 60.8125 -55.8125 64.117188 -56.503906 66.890625 -57.890625 C 69.660156 -59.273438 71.96875 -61.082031 73.8125 -63.3125 C 75.65625 -65.539062 77 -68 77.84375 -70.6875 C 78.6875 -73.382812 79.109375 -76.117188 79.109375 -78.890625 C 79.109375 -84.734375 77.335938 -89.648438 73.796875 -93.640625 C 70.265625 -97.640625 65.039062 -99.640625 58.125 -99.640625 Z M 86.734375 11.078125 C 86.734375 7.535156 84.960938 5.070312 81.421875 3.6875 C 77.878906 2.300781 73.378906 1.453125 67.921875 1.140625 C 62.460938 0.835938 56.503906 0.722656 50.046875 0.796875 C 43.585938 0.878906 37.515625 0.613281 31.828125 0 C 26.910156 4.769531 24.453125 9.304688 24.453125 13.609375 C 24.453125 17.140625 26.753906 20.132812 31.359375 22.59375 C 35.972656 25.0625 42.816406 26.296875 51.890625 26.296875 C 56.503906 26.296875 60.925781 25.945312 65.15625 25.25 C 69.382812 24.5625 73.113281 23.523438 76.34375 22.140625 C 79.570312 20.753906 82.109375 19.140625 83.953125 17.296875 C 85.804688 15.453125 86.734375 13.378906 86.734375 11.078125 Z M 86.734375 11.078125 "/></g></g></g><g fill="#000000" fill-opacity="1"><g transform="translate(1276.636288, 637.022784)"><g><path d="M 45.671875 -115.328125 C 45.210938 -111.785156 44.863281 -108.398438 44.625 -105.171875 C 44.394531 -101.941406 44.242188 -98.367188 44.171875 -94.453125 C 44.097656 -90.535156 44.019531 -86 43.9375 -80.84375 C 43.863281 -75.695312 43.828125 -69.585938 43.828125 -62.515625 C 43.828125 -55.429688 43.828125 -49.046875 43.828125 -43.359375 C 43.828125 -37.671875 43.863281 -32.363281 43.9375 -27.4375 C 44.019531 -22.519531 44.097656 -17.867188 44.171875 -13.484375 C 44.242188 -9.109375 44.359375 -4.613281 44.515625 0 L 13.375 0 C 13.53125 -5.6875 13.722656 -10.679688 13.953125 -14.984375 C 14.179688 -19.296875 14.375 -23.875 14.53125 -28.71875 C 14.6875 -33.5625 14.835938 -39.019531 14.984375 -45.09375 C 15.140625 -51.164062 15.21875 -58.738281 15.21875 -67.8125 C 15.21875 -76.113281 15.140625 -83.914062 14.984375 -91.21875 C 14.835938 -98.53125 14.53125 -106.566406 14.0625 -115.328125 Z M 13.375 -152.921875 C 13.375 -157.234375 14.875 -160.960938 17.875 -164.109375 C 20.875 -167.265625 24.988281 -168.84375 30.21875 -168.84375 C 34.675781 -168.84375 38.554688 -167.535156 41.859375 -164.921875 C 45.171875 -162.304688 46.828125 -158.769531 46.828125 -154.3125 C 46.828125 -150 45.25 -146.378906 42.09375 -143.453125 C 38.9375 -140.535156 34.75 -139.078125 29.53125 -139.078125 C 25.0625 -139.078125 21.25 -140.269531 18.09375 -142.65625 C 14.945312 -145.039062 13.375 -148.460938 13.375 -152.921875 Z M 13.375 -152.921875 "/></g></g></g><g fill="#000000" fill-opacity="1"><g transform="translate(1335.220539, 637.022784)"><g><path d="M 3.453125 -113.484375 C 8.535156 -113.785156 12.691406 -114.664062 15.921875 -116.125 C 19.148438 -117.59375 21.800781 -119.75 23.875 -122.59375 C 25.945312 -125.4375 27.675781 -129.164062 29.0625 -133.78125 C 30.445312 -138.394531 31.832031 -143.929688 33.21875 -150.390625 L 54.671875 -156.609375 C 53.285156 -148.148438 52.207031 -140.691406 51.4375 -134.234375 C 50.664062 -127.773438 49.972656 -121.472656 49.359375 -115.328125 L 74.265625 -115.328125 L 72.203125 -95.71875 L 48.203125 -97.34375 C 47.585938 -88.113281 47.164062 -79.613281 46.9375 -71.84375 C 46.707031 -64.082031 46.59375 -57.429688 46.59375 -51.890625 C 46.59375 -45.585938 46.785156 -40.550781 47.171875 -36.78125 C 47.554688 -33.019531 48.171875 -30.097656 49.015625 -28.015625 C 49.859375 -25.941406 51.007812 -24.554688 52.46875 -23.859375 C 53.9375 -23.171875 55.820312 -22.828125 58.125 -22.828125 C 61.195312 -22.828125 64.191406 -23.25 67.109375 -24.09375 C 70.035156 -24.945312 72.5 -25.988281 74.5 -27.21875 L 71.046875 -3.234375 C 67.347656 -1.234375 63.882812 0.265625 60.65625 1.265625 C 57.425781 2.265625 53.582031 2.765625 49.125 2.765625 C 44.050781 2.765625 39.59375 1.992188 35.75 0.453125 C 31.90625 -1.078125 28.710938 -3.648438 26.171875 -7.265625 C 23.640625 -10.878906 21.757812 -15.566406 20.53125 -21.328125 C 19.300781 -27.097656 18.6875 -34.132812 18.6875 -42.4375 C 18.6875 -49.351562 19.03125 -57.8125 19.71875 -67.8125 C 20.414062 -77.8125 21.144531 -88.191406 21.90625 -98.953125 L 5.078125 -98.953125 Z M 3.453125 -113.484375 "/></g></g></g><g fill="#000000" fill-opacity="1"><g transform="translate(1414.793615, 637.022784)"><g><path d="M 38.0625 2.765625 C 28.375 2.765625 20.566406 -0.535156 14.640625 -7.140625 C 8.722656 -13.753906 5.765625 -22.367188 5.765625 -32.984375 C 5.765625 -44.054688 8.992188 -52.894531 15.453125 -59.5 C 21.910156 -66.113281 30.519531 -69.421875 41.28125 -69.421875 C 45.738281 -69.421875 50.195312 -68.804688 54.65625 -67.578125 C 59.125 -66.347656 63.125 -64.582031 66.65625 -62.28125 L 66.65625 -75.1875 C 66.65625 -82.414062 65.269531 -87.488281 62.5 -90.40625 C 59.738281 -93.332031 54.972656 -94.796875 48.203125 -94.796875 C 43.585938 -94.796875 38.703125 -94.21875 33.546875 -93.0625 C 28.398438 -91.914062 24.289062 -90.492188 21.21875 -88.796875 L 14.0625 -110.953125 C 16.375 -111.867188 19.144531 -112.785156 22.375 -113.703125 C 25.601562 -114.628906 29.0625 -115.398438 32.75 -116.015625 C 36.4375 -116.628906 40.203125 -117.128906 44.046875 -117.515625 C 47.898438 -117.898438 51.441406 -118.09375 54.671875 -118.09375 C 81.734375 -118.09375 95.265625 -104.867188 95.265625 -78.421875 C 95.265625 -76.117188 95.144531 -72.734375 94.90625 -68.265625 C 94.675781 -63.804688 94.445312 -59.15625 94.21875 -54.3125 C 93.988281 -49.46875 93.757812 -44.96875 93.53125 -40.8125 C 93.300781 -36.664062 93.1875 -33.75 93.1875 -32.0625 C 93.1875 -28.519531 93.722656 -25.976562 94.796875 -24.4375 C 95.878906 -22.90625 97.878906 -22.140625 100.796875 -22.140625 C 102.796875 -22.140625 105.101562 -22.445312 107.71875 -23.0625 L 104.03125 -0.921875 C 101.5625 -0.148438 99.289062 0.460938 97.21875 0.921875 C 95.144531 1.378906 93.03125 1.609375 90.875 1.609375 C 85.1875 1.609375 80.421875 0.0351562 76.578125 -3.109375 C 72.734375 -6.265625 70.425781 -10.765625 69.65625 -16.609375 C 66.582031 -10.609375 62.273438 -5.878906 56.734375 -2.421875 C 51.203125 1.035156 44.976562 2.765625 38.0625 2.765625 Z M 49.125 -18.453125 C 54.050781 -18.453125 58.242188 -20.21875 61.703125 -23.75 C 65.160156 -27.289062 66.890625 -31.753906 66.890625 -37.140625 C 66.890625 -41.753906 65.503906 -45.441406 62.734375 -48.203125 C 59.972656 -50.972656 56.128906 -52.359375 51.203125 -52.359375 C 46.128906 -52.359375 42.128906 -50.816406 39.203125 -47.734375 C 36.285156 -44.660156 34.828125 -40.4375 34.828125 -35.0625 C 34.828125 -29.988281 36.09375 -25.953125 38.625 -22.953125 C 41.164062 -19.953125 44.664062 -18.453125 49.125 -18.453125 Z M 49.125 -18.453125 "/></g></g></g><g fill="#000000" fill-opacity="1"><g transform="translate(1525.965189, 637.022784)"><g><path d="M 45.4375 -177.609375 C 44.976562 -172.222656 44.632812 -166.6875 44.40625 -161 C 44.175781 -155.3125 44.019531 -149.046875 43.9375 -142.203125 C 43.863281 -135.359375 43.785156 -127.707031 43.703125 -119.25 C 43.628906 -110.789062 43.59375 -101.101562 43.59375 -90.1875 C 43.59375 -80.039062 43.59375 -70.851562 43.59375 -62.625 C 43.59375 -54.394531 43.628906 -46.742188 43.703125 -39.671875 C 43.785156 -32.597656 43.863281 -25.867188 43.9375 -19.484375 C 44.019531 -13.109375 44.132812 -6.613281 44.28125 0 L 13.140625 0 C 13.296875 -8 13.488281 -15.070312 13.71875 -21.21875 C 13.945312 -27.375 14.140625 -33.796875 14.296875 -40.484375 C 14.453125 -47.171875 14.609375 -54.78125 14.765625 -63.3125 C 14.921875 -71.84375 15 -82.566406 15 -95.484375 C 15 -108.554688 14.921875 -121.664062 14.765625 -134.8125 C 14.609375 -147.96875 14.300781 -161.460938 13.84375 -175.296875 Z M 45.4375 -177.609375 "/></g></g></g><g fill="#000000" fill-opacity="1"><g transform="translate(1584.088081, 637.022784)"><g/></g></g><g fill="#000000" fill-opacity="1"><g transform="translate(1632.985166, 637.022784)"><g><path d="M 62.515625 -23.53125 C 72.203125 -23.53125 79.390625 -25.21875 84.078125 -28.59375 C 88.765625 -31.976562 91.109375 -36.898438 91.109375 -43.359375 C 91.109375 -47.359375 90.257812 -50.738281 88.5625 -53.5 C 86.875 -56.269531 84.609375 -58.65625 81.765625 -60.65625 C 78.921875 -62.65625 75.613281 -64.382812 71.84375 -65.84375 C 68.082031 -67.3125 64.203125 -68.738281 60.203125 -70.125 C 52.816406 -72.582031 46.164062 -75.039062 40.25 -77.5 C 34.332031 -79.957031 29.257812 -82.835938 25.03125 -86.140625 C 20.800781 -89.453125 17.53125 -93.53125 15.21875 -98.375 C 12.914062 -103.21875 11.765625 -109.253906 11.765625 -116.484375 C 11.765625 -126.472656 13.800781 -134.582031 17.875 -140.8125 C 21.945312 -147.039062 27.054688 -151.882812 33.203125 -155.34375 C 39.359375 -158.800781 46.085938 -161.109375 53.390625 -162.265625 C 60.703125 -163.421875 67.507812 -164 73.8125 -164 C 81.800781 -164 89.367188 -163.382812 96.515625 -162.15625 C 103.671875 -160.925781 109.941406 -159.691406 115.328125 -158.453125 L 115.328125 -131.703125 C 107.941406 -133.859375 100.328125 -135.625 92.484375 -137 C 84.648438 -138.382812 77.503906 -139.078125 71.046875 -139.078125 C 59.972656 -139.078125 51.898438 -137.117188 46.828125 -133.203125 C 41.753906 -129.285156 39.21875 -124.554688 39.21875 -119.015625 C 39.21875 -114.867188 40.40625 -111.410156 42.78125 -108.640625 C 45.164062 -105.867188 48.085938 -103.484375 51.546875 -101.484375 C 55.003906 -99.484375 58.691406 -97.90625 62.609375 -96.75 C 66.535156 -95.601562 70.113281 -94.566406 73.34375 -93.640625 C 78.882812 -92.109375 84.421875 -90.226562 89.953125 -88 C 95.492188 -85.769531 100.53125 -82.804688 105.0625 -79.109375 C 109.601562 -75.421875 113.253906 -70.847656 116.015625 -65.390625 C 118.785156 -59.929688 120.171875 -53.203125 120.171875 -45.203125 C 120.171875 -37.210938 118.75 -30.21875 115.90625 -24.21875 C 113.0625 -18.21875 109.0625 -13.21875 103.90625 -9.21875 C 98.757812 -5.226562 92.648438 -2.234375 85.578125 -0.234375 C 78.503906 1.765625 70.738281 2.765625 62.28125 2.765625 C 54.894531 2.765625 46.625 1.992188 37.46875 0.453125 C 28.320312 -1.078125 19.367188 -3.457031 10.609375 -6.6875 L 9.6875 -35.0625 C 12.457031 -33.675781 15.914062 -32.328125 20.0625 -31.015625 C 24.21875 -29.710938 28.71875 -28.484375 33.5625 -27.328125 C 38.40625 -26.179688 43.320312 -25.257812 48.3125 -24.5625 C 53.3125 -23.875 58.046875 -23.53125 62.515625 -23.53125 Z M 62.515625 -23.53125 "/></g></g></g><g fill="#000000" fill-opacity="1"><g transform="translate(1761.916577, 637.022784)"><g><path d="M 60.203125 -99.1875 C 52.972656 -99.1875 47.4375 -95.378906 43.59375 -87.765625 C 39.75 -80.148438 37.828125 -69.734375 37.828125 -56.515625 C 37.828125 -43.597656 39.398438 -33.5625 42.546875 -26.40625 C 45.703125 -19.257812 51.203125 -15.6875 59.046875 -15.6875 C 66.273438 -15.6875 71.890625 -19.644531 75.890625 -27.5625 C 79.890625 -35.476562 81.890625 -46.050781 81.890625 -59.28125 C 81.890625 -65.425781 81.578125 -70.957031 80.953125 -75.875 C 80.335938 -80.800781 79.222656 -84.992188 77.609375 -88.453125 C 75.992188 -91.910156 73.765625 -94.5625 70.921875 -96.40625 C 68.078125 -98.257812 64.503906 -99.1875 60.203125 -99.1875 Z M 7.609375 -55.8125 C 7.609375 -65.351562 8.914062 -73.96875 11.53125 -81.65625 C 14.144531 -89.34375 17.796875 -95.875 22.484375 -101.25 C 27.179688 -106.632812 32.910156 -110.785156 39.671875 -113.703125 C 46.441406 -116.628906 53.976562 -118.09375 62.28125 -118.09375 C 77.957031 -118.09375 90.140625 -113.09375 98.828125 -103.09375 C 107.523438 -93.101562 111.875 -79.113281 111.875 -61.125 C 111.875 -51.4375 110.566406 -42.671875 107.953125 -34.828125 C 105.335938 -26.984375 101.644531 -20.253906 96.875 -14.640625 C 92.101562 -9.035156 86.375 -4.734375 79.6875 -1.734375 C 73 1.265625 65.582031 2.765625 57.4375 2.765625 C 49.75 2.765625 42.828125 1.382812 36.671875 -1.375 C 30.523438 -4.144531 25.296875 -8.066406 20.984375 -13.140625 C 16.679688 -18.222656 13.375 -24.375 11.0625 -31.59375 C 8.757812 -38.820312 7.609375 -46.894531 7.609375 -55.8125 Z M 7.609375 -55.8125 "/></g></g></g><g fill="#000000" fill-opacity="1"><g transform="translate(1881.622075, 637.022784)"><g><path d="M 45.4375 -177.609375 C 44.976562 -172.222656 44.632812 -166.6875 44.40625 -161 C 44.175781 -155.3125 44.019531 -149.046875 43.9375 -142.203125 C 43.863281 -135.359375 43.785156 -127.707031 43.703125 -119.25 C 43.628906 -110.789062 43.59375 -101.101562 43.59375 -90.1875 C 43.59375 -80.039062 43.59375 -70.851562 43.59375 -62.625 C 43.59375 -54.394531 43.628906 -46.742188 43.703125 -39.671875 C 43.785156 -32.597656 43.863281 -25.867188 43.9375 -19.484375 C 44.019531 -13.109375 44.132812 -6.613281 44.28125 0 L 13.140625 0 C 13.296875 -8 13.488281 -15.070312 13.71875 -21.21875 C 13.945312 -27.375 14.140625 -33.796875 14.296875 -40.484375 C 14.453125 -47.171875 14.609375 -54.78125 14.765625 -63.3125 C 14.921875 -71.84375 15 -82.566406 15 -95.484375 C 15 -108.554688 14.921875 -121.664062 14.765625 -134.8125 C 14.609375 -147.96875 14.300781 -161.460938 13.84375 -175.296875 Z M 45.4375 -177.609375 "/></g></g></g><g fill="#000000" fill-opacity="1"><g transform="translate(1939.744967, 637.022784)"><g><path d="M 91.796875 2.765625 C 88.722656 -1.691406 86.265625 -5.535156 84.421875 -8.765625 C 82.578125 -11.992188 81.191406 -15.375 80.265625 -18.90625 C 77.960938 -16.300781 75.503906 -13.726562 72.890625 -11.1875 C 70.273438 -8.644531 67.390625 -6.335938 64.234375 -4.265625 C 61.085938 -2.191406 57.742188 -0.503906 54.203125 0.796875 C 50.671875 2.109375 46.828125 2.765625 42.671875 2.765625 C 38.828125 2.765625 35.097656 2.070312 31.484375 0.6875 C 27.867188 -0.695312 24.675781 -3.003906 21.90625 -6.234375 C 19.144531 -9.460938 16.914062 -13.84375 15.21875 -19.375 C 13.53125 -24.90625 12.6875 -31.828125 12.6875 -40.140625 C 12.6875 -42.128906 12.722656 -45.238281 12.796875 -49.46875 C 12.878906 -53.695312 12.992188 -58.15625 13.140625 -62.84375 C 13.296875 -67.539062 13.410156 -72.039062 13.484375 -76.34375 C 13.566406 -80.65625 13.609375 -83.960938 13.609375 -86.265625 C 13.609375 -91.335938 13.257812 -96.21875 12.5625 -100.90625 C 11.875 -105.601562 10.6875 -109.488281 9 -112.5625 L 40.59375 -118.09375 C 41.664062 -114.5625 42.316406 -110.71875 42.546875 -106.5625 C 42.785156 -102.40625 42.90625 -98.789062 42.90625 -95.71875 C 42.90625 -91.257812 42.785156 -86.800781 42.546875 -82.34375 C 42.316406 -77.882812 42.085938 -73.539062 41.859375 -69.3125 C 41.628906 -65.082031 41.398438 -61.082031 41.171875 -57.3125 C 40.941406 -53.550781 40.828125 -50.285156 40.828125 -47.515625 C 40.828125 -38.441406 42.363281 -32.210938 45.4375 -28.828125 C 48.507812 -25.441406 52.738281 -23.75 58.125 -23.75 C 62.582031 -23.75 66.425781 -24.519531 69.65625 -26.0625 C 72.882812 -27.601562 75.804688 -29.445312 78.421875 -31.59375 C 78.265625 -34.363281 78.1875 -37.476562 78.1875 -40.9375 C 78.1875 -44.394531 78.1875 -48.351562 78.1875 -52.8125 C 78.1875 -59.894531 78.1875 -66.28125 78.1875 -71.96875 C 78.1875 -77.65625 78.148438 -82.957031 78.078125 -87.875 C 78.003906 -92.800781 77.925781 -97.453125 77.84375 -101.828125 C 77.769531 -106.210938 77.65625 -110.710938 77.5 -115.328125 L 108.640625 -115.328125 C 108.484375 -111.640625 108.328125 -107.488281 108.171875 -102.875 C 108.023438 -98.257812 107.832031 -93.375 107.59375 -88.21875 C 107.363281 -83.070312 107.171875 -77.769531 107.015625 -72.3125 C 106.867188 -66.851562 106.796875 -61.585938 106.796875 -56.515625 C 106.796875 -50.515625 106.945312 -45.628906 107.25 -41.859375 C 107.5625 -38.097656 108.175781 -34.789062 109.09375 -31.9375 C 110.019531 -29.09375 111.25 -26.476562 112.78125 -24.09375 C 114.320312 -21.71875 116.320312 -18.992188 118.78125 -15.921875 Z M 91.796875 2.765625 "/></g></g></g><g fill="#000000" fill-opacity="1"><g transform="translate(2062.910185, 637.022784)"><g><path d="M 3.453125 -113.484375 C 8.535156 -113.785156 12.691406 -114.664062 15.921875 -116.125 C 19.148438 -117.59375 21.800781 -119.75 23.875 -122.59375 C 25.945312 -125.4375 27.675781 -129.164062 29.0625 -133.78125 C 30.445312 -138.394531 31.832031 -143.929688 33.21875 -150.390625 L 54.671875 -156.609375 C 53.285156 -148.148438 52.207031 -140.691406 51.4375 -134.234375 C 50.664062 -127.773438 49.972656 -121.472656 49.359375 -115.328125 L 74.265625 -115.328125 L 72.203125 -95.71875 L 48.203125 -97.34375 C 47.585938 -88.113281 47.164062 -79.613281 46.9375 -71.84375 C 46.707031 -64.082031 46.59375 -57.429688 46.59375 -51.890625 C 46.59375 -45.585938 46.785156 -40.550781 47.171875 -36.78125 C 47.554688 -33.019531 48.171875 -30.097656 49.015625 -28.015625 C 49.859375 -25.941406 51.007812 -24.554688 52.46875 -23.859375 C 53.9375 -23.171875 55.820312 -22.828125 58.125 -22.828125 C 61.195312 -22.828125 64.191406 -23.25 67.109375 -24.09375 C 70.035156 -24.945312 72.5 -25.988281 74.5 -27.21875 L 71.046875 -3.234375 C 67.347656 -1.234375 63.882812 0.265625 60.65625 1.265625 C 57.425781 2.265625 53.582031 2.765625 49.125 2.765625 C 44.050781 2.765625 39.59375 1.992188 35.75 0.453125 C 31.90625 -1.078125 28.710938 -3.648438 26.171875 -7.265625 C 23.640625 -10.878906 21.757812 -15.566406 20.53125 -21.328125 C 19.300781 -27.097656 18.6875 -34.132812 18.6875 -42.4375 C 18.6875 -49.351562 19.03125 -57.8125 19.71875 -67.8125 C 20.414062 -77.8125 21.144531 -88.191406 21.90625 -98.953125 L 5.078125 -98.953125 Z M 3.453125 -113.484375 "/></g></g></g><g fill="#000000" fill-opacity="1"><g transform="translate(2142.483261, 637.022784)"><g><path d="M 45.671875 -115.328125 C 45.210938 -111.785156 44.863281 -108.398438 44.625 -105.171875 C 44.394531 -101.941406 44.242188 -98.367188 44.171875 -94.453125 C 44.097656 -90.535156 44.019531 -86 43.9375 -80.84375 C 43.863281 -75.695312 43.828125 -69.585938 43.828125 -62.515625 C 43.828125 -55.429688 43.828125 -49.046875 43.828125 -43.359375 C 43.828125 -37.671875 43.863281 -32.363281 43.9375 -27.4375 C 44.019531 -22.519531 44.097656 -17.867188 44.171875 -13.484375 C 44.242188 -9.109375 44.359375 -4.613281 44.515625 0 L 13.375 0 C 13.53125 -5.6875 13.722656 -10.679688 13.953125 -14.984375 C 14.179688 -19.296875 14.375 -23.875 14.53125 -28.71875 C 14.6875 -33.5625 14.835938 -39.019531 14.984375 -45.09375 C 15.140625 -51.164062 15.21875 -58.738281 15.21875 -67.8125 C 15.21875 -76.113281 15.140625 -83.914062 14.984375 -91.21875 C 14.835938 -98.53125 14.53125 -106.566406 14.0625 -115.328125 Z M 13.375 -152.921875 C 13.375 -157.234375 14.875 -160.960938 17.875 -164.109375 C 20.875 -167.265625 24.988281 -168.84375 30.21875 -168.84375 C 34.675781 -168.84375 38.554688 -167.535156 41.859375 -164.921875 C 45.171875 -162.304688 46.828125 -158.769531 46.828125 -154.3125 C 46.828125 -150 45.25 -146.378906 42.09375 -143.453125 C 38.9375 -140.535156 34.75 -139.078125 29.53125 -139.078125 C 25.0625 -139.078125 21.25 -140.269531 18.09375 -142.65625 C 14.945312 -145.039062 13.375 -148.460938 13.375 -152.921875 Z M 13.375 -152.921875 "/></g></g></g><g fill="#000000" fill-opacity="1"><g transform="translate(2201.067512, 637.022784)"><g><path d="M 60.203125 -99.1875 C 52.972656 -99.1875 47.4375 -95.378906 43.59375 -87.765625 C 39.75 -80.148438 37.828125 -69.734375 37.828125 -56.515625 C 37.828125 -43.597656 39.398438 -33.5625 42.546875 -26.40625 C 45.703125 -19.257812 51.203125 -15.6875 59.046875 -15.6875 C 66.273438 -15.6875 71.890625 -19.644531 75.890625 -27.5625 C 79.890625 -35.476562 81.890625 -46.050781 81.890625 -59.28125 C 81.890625 -65.425781 81.578125 -70.957031 80.953125 -75.875 C 80.335938 -80.800781 79.222656 -84.992188 77.609375 -88.453125 C 75.992188 -91.910156 73.765625 -94.5625 70.921875 -96.40625 C 68.078125 -98.257812 64.503906 -99.1875 60.203125 -99.1875 Z M 7.609375 -55.8125 C 7.609375 -65.351562 8.914062 -73.96875 11.53125 -81.65625 C 14.144531 -89.34375 17.796875 -95.875 22.484375 -101.25 C 27.179688 -106.632812 32.910156 -110.785156 39.671875 -113.703125 C 46.441406 -116.628906 53.976562 -118.09375 62.28125 -118.09375 C 77.957031 -118.09375 90.140625 -113.09375 98.828125 -103.09375 C 107.523438 -93.101562 111.875 -79.113281 111.875 -61.125 C 111.875 -51.4375 110.566406 -42.671875 107.953125 -34.828125 C 105.335938 -26.984375 101.644531 -20.253906 96.875 -14.640625 C 92.101562 -9.035156 86.375 -4.734375 79.6875 -1.734375 C 73 1.265625 65.582031 2.765625 57.4375 2.765625 C 49.75 2.765625 42.828125 1.382812 36.671875 -1.375 C 30.523438 -4.144531 25.296875 -8.066406 20.984375 -13.140625 C 16.679688 -18.222656 13.375 -24.375 11.0625 -31.59375 C 8.757812 -38.820312 7.609375 -46.894531 7.609375 -55.8125 Z M 7.609375 -55.8125 "/></g></g></g><g fill="#000000" fill-opacity="1"><g transform="translate(2320.77301, 637.022784)"><g><path d="M 31.828125 -118.09375 C 34.898438 -113.632812 37.359375 -109.710938 39.203125 -106.328125 C 41.054688 -102.953125 42.441406 -99.492188 43.359375 -95.953125 C 45.671875 -98.410156 48.285156 -100.984375 51.203125 -103.671875 C 54.128906 -106.367188 57.242188 -108.753906 60.546875 -110.828125 C 63.847656 -112.898438 67.421875 -114.628906 71.265625 -116.015625 C 75.117188 -117.398438 79.117188 -118.09375 83.265625 -118.09375 C 87.109375 -118.09375 90.835938 -117.398438 94.453125 -116.015625 C 98.066406 -114.628906 101.253906 -112.320312 104.015625 -109.09375 C 106.785156 -105.863281 109.015625 -101.484375 110.703125 -95.953125 C 112.398438 -90.421875 113.25 -83.5 113.25 -75.1875 C 113.25 -73.039062 113.207031 -69.890625 113.125 -65.734375 C 113.050781 -61.585938 112.9375 -57.164062 112.78125 -52.46875 C 112.632812 -47.78125 112.519531 -43.28125 112.4375 -38.96875 C 112.363281 -34.664062 112.328125 -31.363281 112.328125 -29.0625 C 112.328125 -23.988281 112.671875 -19.101562 113.359375 -14.40625 C 114.054688 -9.71875 115.25 -5.835938 116.9375 -2.765625 L 84.875 2.765625 C 83.800781 -0.765625 83.148438 -4.609375 82.921875 -8.765625 C 82.691406 -12.921875 82.578125 -16.535156 82.578125 -19.609375 C 82.578125 -23.910156 82.691406 -28.328125 82.921875 -32.859375 C 83.148438 -37.398438 83.378906 -41.785156 83.609375 -46.015625 C 83.835938 -50.242188 84.066406 -54.238281 84.296875 -58 C 84.535156 -61.769531 84.65625 -65.039062 84.65625 -67.8125 C 84.65625 -76.882812 83.113281 -83.113281 80.03125 -86.5 C 76.957031 -89.882812 72.734375 -91.578125 67.359375 -91.578125 C 62.890625 -91.578125 58.769531 -90.882812 55 -89.5 C 51.238281 -88.113281 47.898438 -86.421875 44.984375 -84.421875 C 45.285156 -81.492188 45.4375 -78.257812 45.4375 -74.71875 C 45.4375 -71.1875 45.4375 -67.117188 45.4375 -62.515625 C 45.4375 -55.429688 45.4375 -49.046875 45.4375 -43.359375 C 45.4375 -37.671875 45.472656 -32.363281 45.546875 -27.4375 C 45.628906 -22.519531 45.707031 -17.867188 45.78125 -13.484375 C 45.863281 -9.109375 45.976562 -4.613281 46.125 0 L 15 0 C 15.144531 -3.6875 15.296875 -7.835938 15.453125 -12.453125 C 15.609375 -17.066406 15.800781 -21.945312 16.03125 -27.09375 C 16.257812 -32.25 16.453125 -37.554688 16.609375 -43.015625 C 16.765625 -48.472656 16.84375 -53.738281 16.84375 -58.8125 C 16.84375 -64.8125 16.6875 -69.691406 16.375 -73.453125 C 16.070312 -77.222656 15.457031 -80.53125 14.53125 -83.375 C 13.601562 -86.226562 12.367188 -88.84375 10.828125 -91.21875 C 9.296875 -93.601562 7.300781 -96.332031 4.84375 -99.40625 Z M 31.828125 -118.09375 "/></g></g></g><g fill="#000000" fill-opacity="1"><g transform="translate(2446.936689, 637.022784)"><g><path d="M 47.28125 -21.6875 C 51.59375 -21.6875 54.671875 -22.53125 56.515625 -24.21875 C 58.359375 -25.90625 59.28125 -28.289062 59.28125 -31.375 C 59.28125 -33.375 58.929688 -35.0625 58.234375 -36.4375 C 57.546875 -37.820312 56.46875 -39.050781 55 -40.125 C 53.539062 -41.207031 51.660156 -42.25 49.359375 -43.25 C 47.054688 -44.25 44.289062 -45.363281 41.0625 -46.59375 C 37.363281 -47.976562 33.628906 -49.515625 29.859375 -51.203125 C 26.097656 -52.898438 22.71875 -55.050781 19.71875 -57.65625 C 16.71875 -60.269531 14.296875 -63.65625 12.453125 -67.8125 C 10.609375 -71.96875 9.6875 -77.195312 9.6875 -83.5 C 9.6875 -90.875 11.109375 -96.828125 13.953125 -101.359375 C 16.796875 -105.898438 20.289062 -109.398438 24.4375 -111.859375 C 28.59375 -114.328125 33.054688 -115.984375 37.828125 -116.828125 C 42.597656 -117.671875 46.976562 -118.09375 50.96875 -118.09375 C 55.425781 -118.09375 60.269531 -117.707031 65.5 -116.9375 C 70.726562 -116.175781 75.113281 -115.101562 78.65625 -113.71875 L 78.65625 -89.265625 C 76.039062 -90.179688 73.269531 -90.984375 70.34375 -91.671875 C 67.425781 -92.367188 64.582031 -92.945312 61.8125 -93.40625 C 59.039062 -93.875 56.425781 -94.222656 53.96875 -94.453125 C 51.507812 -94.679688 49.507812 -94.796875 47.96875 -94.796875 C 38.132812 -94.796875 33.21875 -91.414062 33.21875 -84.65625 C 33.21875 -79.882812 35.367188 -76.304688 39.671875 -73.921875 C 43.972656 -71.535156 49.28125 -69.191406 55.59375 -66.890625 C 59.4375 -65.503906 63.046875 -63.925781 66.421875 -62.15625 C 69.804688 -60.394531 72.765625 -58.164062 75.296875 -55.46875 C 77.835938 -52.78125 79.835938 -49.4375 81.296875 -45.4375 C 82.765625 -41.4375 83.5 -36.59375 83.5 -30.90625 C 83.5 -19.21875 80.269531 -10.679688 73.8125 -5.296875 C 67.351562 0.078125 58.972656 2.765625 48.671875 2.765625 C 43.128906 2.765625 37.050781 1.992188 30.4375 0.453125 C 23.832031 -1.078125 17.300781 -3.457031 10.84375 -6.6875 L 9.921875 -32.75 C 11.921875 -31.363281 14.457031 -30.015625 17.53125 -28.703125 C 20.601562 -27.398438 23.90625 -26.25 27.4375 -25.25 C 30.976562 -24.25 34.476562 -23.40625 37.9375 -22.71875 C 41.394531 -22.03125 44.507812 -21.6875 47.28125 -21.6875 Z M 47.28125 -21.6875 "/></g></g></g></svg>